<svg width="24" height="24" viewBox="0 0 24 24" fill="none" xmlns="http://www.w3.org/2000/svg">
<path d="M1 2H23V7H1V2Z" fill="#CFF6E8"/>
<path d="M20 18H23V2H1V18H4" stroke="#0FD08B" stroke-width="2" stroke-miterlimit="10" stroke-linecap="round" stroke-linejoin="round"/>
<path d="M12 14L12.7071 13.2929L12 12.5858L11.2929 13.2929L12 14ZM15.2929 18.7071L16 19.4142L17.4142 18L16.7071 17.2929L15.2929 18.7071ZM7.29289 17.2929L6.58579 18L8 19.4142L8.70711 18.7071L7.29289 17.2929ZM11 14L11 23H13L13 14L11 14ZM16.7071 17.2929L12.7071 13.2929L11.2929 14.7071L15.2929 18.7071L16.7071 17.2929ZM11.2929 13.2929L7.29289 17.2929L8.70711 18.7071L12.7071 14.7071L11.2929 13.2929Z" fill="#0FD08B"/>
</svg>
