<svg width="24" height="24" viewBox="0 0 24 24" fill="none" xmlns="http://www.w3.org/2000/svg">
<path d="M1 2H23V7H1V2Z" fill="#CFF6E8"/>
<path d="M20 18H23V2H1V18H4" stroke="#0FD08B" stroke-width="2" stroke-miterlimit="10" stroke-linecap="round" stroke-linejoin="round"/>
<path d="M12 22L11.2929 22.7071L12 23.4142L12.7071 22.7071L12 22ZM8.70711 17.2929L8 16.5858L6.58579 18L7.29289 18.7071L8.70711 17.2929ZM16.7071 18.7071L17.4142 18L16 16.5858L15.2929 17.2929L16.7071 18.7071ZM13 22L13 13L11 13L11 22L13 22ZM7.29289 18.7071L11.2929 22.7071L12.7071 21.2929L8.70711 17.2929L7.29289 18.7071ZM12.7071 22.7071L16.7071 18.7071L15.2929 17.2929L11.2929 21.2929L12.7071 22.7071Z" fill="#0FD08B"/>
</svg>
