<?xml version="1.0" encoding="UTF-8"?>
<svg xmlns="http://www.w3.org/2000/svg" xmlns:xlink="http://www.w3.org/1999/xlink" width="24px" height="24px" viewBox="0 0 24 24" version="1.1">
<g id="surface1">
<path style=" stroke:none;fill-rule:nonzero;fill:rgb(15, 208, 139);fill-opacity:1;" d="M 11.109375 4.386719 C 8.347656 4.714844 5.789062 5.992188 3.070312 8.394531 C 2.117188 9.234375 0.554688 10.925781 0.148438 11.554688 C -0.0195312 11.816406 -0.0195312 12.183594 0.148438 12.445312 C 0.367188 12.78125 1.273438 13.835938 1.921875 14.5 C 4.234375 16.878906 6.804688 18.546875 9.234375 19.242188 C 10.289062 19.542969 10.824219 19.613281 12 19.613281 C 13.175781 19.613281 13.710938 19.542969 14.765625 19.242188 C 17.609375 18.425781 20.738281 16.210938 23.230469 13.226562 C 23.914062 12.414062 23.972656 12.3125 23.972656 12 C 23.972656 11.6875 23.914062 11.585938 23.230469 10.773438 C 20.75 7.8125 17.632812 5.59375 14.8125 4.773438 C 13.867188 4.496094 13.238281 4.40625 12.210938 4.386719 C 11.695312 4.375 11.199219 4.378906 11.109375 4.386719 Z M 13.148438 6.023438 C 15.355469 6.355469 17.761719 7.65625 20.070312 9.769531 C 20.78125 10.410156 22.171875 11.898438 22.171875 12.003906 C 22.171875 12.019531 22.011719 12.21875 21.8125 12.445312 C 19.082031 15.566406 15.980469 17.550781 13.148438 17.976562 C 12.546875 18.066406 11.453125 18.066406 10.851562 17.976562 C 8.8125 17.667969 6.636719 16.554688 4.476562 14.722656 C 3.695312 14.0625 1.828125 12.140625 1.828125 12 C 1.828125 11.980469 1.988281 11.78125 2.1875 11.554688 C 4.898438 8.457031 8 6.464844 10.808594 6.027344 C 11.382812 5.9375 12.566406 5.9375 13.148438 6.023438 Z M 13.148438 6.023438 "/>
<path style=" stroke:none;fill-rule:nonzero;fill:rgb(15, 208, 139);fill-opacity:1;" d="M 11.34375 7.292969 C 9.3125 7.664062 7.871094 8.984375 7.378906 10.921875 C 7.25 11.417969 7.25 12.582031 7.378906 13.078125 C 7.832031 14.859375 9.140625 16.167969 10.921875 16.621094 C 11.417969 16.75 12.582031 16.75 13.078125 16.621094 C 14.859375 16.167969 16.167969 14.859375 16.621094 13.078125 C 16.691406 12.804688 16.710938 12.5625 16.710938 12 C 16.710938 11.4375 16.691406 11.195312 16.621094 10.921875 C 16.175781 9.164062 14.90625 7.875 13.148438 7.398438 C 12.828125 7.308594 11.632812 7.242188 11.34375 7.292969 Z M 12.75 8.933594 C 13.625 9.132812 14.429688 9.773438 14.835938 10.617188 C 15.078125 11.117188 15.15625 11.503906 15.132812 12.140625 C 15.109375 12.746094 14.992188 13.152344 14.710938 13.632812 C 14.511719 13.96875 13.96875 14.511719 13.632812 14.710938 C 12.640625 15.289062 11.359375 15.289062 10.367188 14.710938 C 10.03125 14.511719 9.488281 13.96875 9.289062 13.632812 C 8.710938 12.640625 8.710938 11.359375 9.289062 10.367188 C 9.488281 10.03125 10.03125 9.488281 10.367188 9.289062 C 11.078125 8.875 11.90625 8.746094 12.75 8.933594 Z M 12.75 8.933594 "/>
</g>
</svg>
