<svg width="24" height="24" viewBox="0 0 24 24" fill="none" xmlns="http://www.w3.org/2000/svg">
<g opacity="0.5">
<path d="M1 20V23H13V20.417C13 19.036 14.119 18 15.5 18H3C1.895 18 1 18.895 1 20Z" stroke="#442E83" stroke-width="2" stroke-miterlimit="10"/>
<path d="M15.5 18C16.794 18 18 18.924 18 20.5C18 21.881 19.119 23 20.5 23C21.881 23 23 21.881 23 20.5V1H7V18" stroke="#442E83" stroke-width="2" stroke-miterlimit="10"/>
<path d="M15.7853 5.4292H14.3008V6.25923C14.1004 6.30024 13.9126 6.3609 13.7378 6.44199C13.37 6.60956 13.0783 6.85471 12.87 7.17714C12.6636 7.49854 12.5638 7.87166 12.5638 8.2887C12.5638 8.73877 12.6892 9.12925 12.9503 9.44633C13.2093 9.76092 13.5884 9.9869 14.0681 10.1357L15.6297 10.6218C15.8665 10.6951 16.0124 10.7808 16.0928 10.8655L16.0946 10.8673C16.1665 10.941 16.2088 11.041 16.2088 11.1867C16.2088 11.3857 16.1253 11.552 15.9308 11.6958C15.7328 11.839 15.4711 11.9182 15.1308 11.9182C14.784 11.9182 14.4955 11.8225 14.2552 11.6368C14.0181 11.4483 13.8614 11.1955 13.7868 10.8678L13.7453 10.6852L12.2936 10.9169L12.323 11.1129C12.3904 11.5617 12.5471 11.9564 12.7969 12.2917L12.7977 12.2927C13.0491 12.6257 13.3707 12.8831 13.7592 13.0644C13.9307 13.1445 14.1114 13.2064 14.3008 13.2508V14.0957H15.7853V13.2679C16.0094 13.2231 16.22 13.1556 16.4163 13.0647L16.4175 13.0641C16.8101 12.8792 17.1217 12.6193 17.345 12.2828C17.57 11.9436 17.6798 11.5517 17.6798 11.1147C17.6798 10.6188 17.5445 10.1998 17.2556 9.87907C16.9738 9.56002 16.5292 9.32544 15.9513 9.15855L14.7861 8.82114C14.4893 8.73467 14.2954 8.63712 14.1833 8.53937C14.0821 8.44858 14.0393 8.35021 14.0393 8.2347C14.0393 8.12248 14.074 8.0242 14.1478 7.93305L14.1492 7.93125C14.2265 7.83345 14.3341 7.754 14.4801 7.69614L14.4828 7.695C14.6276 7.63507 14.7961 7.60413 14.9918 7.60666C15.1939 7.61214 15.3721 7.65449 15.5297 7.73073C15.6878 7.80723 15.8174 7.91316 15.921 8.04964C16.0244 8.18578 16.0951 8.3447 16.1316 8.52989L16.1697 8.72329L17.6821 8.44776L17.634 8.24297C17.5353 7.82259 17.3665 7.45622 17.1244 7.14851C16.885 6.84046 16.583 6.60447 16.2213 6.44148C16.0826 6.37849 15.9372 6.32778 15.7853 6.28905V5.4292Z" fill="#442E83"/>
</g>
</svg>
